<svg width="521" height="574" viewBox="0 0 521 574" fill="none" xmlns="http://www.w3.org/2000/svg">
<mask id="mask0_0_402" style="mask-type:alpha" maskUnits="userSpaceOnUse" x="0" y="62" width="521" height="512">
<path fill-rule="evenodd" clip-rule="evenodd" d="M0.532715 62.3014H520.785V573.31H0.532715V62.3014Z" fill="white"/>
</mask>
<g mask="url(#mask0_0_402)">
<path fill-rule="evenodd" clip-rule="evenodd" d="M457.394 550.18C443.932 558.28 428.268 564.13 411.002 567.93C399.542 570.43 387.331 572.08 374.619 572.78C327.877 575.63 274.129 566.88 222.332 549.38C210.722 545.48 199.211 541.13 187.901 536.33C103.675 500.93 30.4595 443.13 9.94101 376.13C-27.5427 253.83 52.9297 165.88 146.114 85.18C183.898 52.43 233.142 57.13 284.088 84.78C295.998 91.23 307.959 98.93 319.92 107.68C364.81 140.63 409.25 188.58 446.784 241.88C520.451 346.53 563.089 486.73 457.394 550.18Z" fill="#FDE6D6"/>
</g>
<path fill-rule="evenodd" clip-rule="evenodd" d="M418.125 155.935C409.432 138.425 406.249 116.265 423.68 109.13C443.147 101.165 474.165 114.045 483.193 143.27C488.964 161.945 486.982 188.015 471.038 198.035C457.395 206.615 428.789 177.41 418.125 155.935Z" fill="#E8E5EA"/>
<path fill-rule="evenodd" clip-rule="evenodd" d="M142.144 66.8425C142.129 66.8425 142.114 66.8425 142.099 66.8425C138.751 66.6125 135.393 66.4875 132.13 66.4675C131.78 66.4675 131.504 66.1875 131.504 65.8425C131.509 65.4975 131.785 65.2175 132.13 65.2175H132.135C135.428 65.2375 138.811 65.3625 142.189 65.5925C142.534 65.6175 142.79 65.9175 142.77 66.2625C142.744 66.5925 142.469 66.8425 142.144 66.8425ZM112.147 67.8025C111.842 67.8025 111.571 67.5775 111.526 67.2675C111.476 66.9275 111.711 66.6075 112.057 66.5575C115.29 66.0875 118.663 65.7375 122.071 65.5125C122.461 65.4475 122.716 65.7525 122.736 66.0975C122.761 66.4375 122.501 66.7375 122.156 66.7575C118.778 66.9825 115.44 67.3325 112.237 67.7925C112.207 67.7975 112.177 67.8025 112.147 67.8025ZM162.032 69.3175C161.992 69.3175 161.957 69.3125 161.922 69.3075C158.634 68.7175 155.311 68.2175 152.043 67.8075C151.697 67.7625 151.452 67.4525 151.497 67.1075C151.542 66.7675 151.828 66.5375 152.198 66.5675C155.491 66.9775 158.834 67.4875 162.142 68.0775C162.477 68.1375 162.707 68.4625 162.647 68.8025C162.592 69.1025 162.327 69.3175 162.032 69.3175ZM92.6393 72.3175C92.3741 72.3175 92.1289 72.1475 92.0438 71.8775C91.9387 71.5475 92.1239 71.1975 92.4542 71.0975C95.622 70.0975 98.885 69.2075 102.158 68.4425C102.488 68.3625 102.834 68.5725 102.909 68.9075C102.989 69.2425 102.778 69.5775 102.443 69.6575C99.2002 70.4175 95.9623 71.3025 92.8295 72.2875C92.7645 72.3075 92.7044 72.3175 92.6393 72.3175ZM181.589 73.6975C181.534 73.6975 181.479 73.6925 181.424 73.6775C178.171 72.7975 174.908 71.9925 171.721 71.2775C171.38 71.2025 171.17 70.8675 171.245 70.5275C171.32 70.1925 171.635 69.9775 171.991 70.0575C175.199 70.7775 178.482 71.5875 181.755 72.4675C182.085 72.5625 182.285 72.9025 182.19 73.2375C182.115 73.5125 181.865 73.6975 181.589 73.6975ZM200.742 79.6476C200.672 79.6476 200.602 79.6376 200.531 79.6126C197.399 78.5076 194.201 77.4526 191.038 76.4676C190.708 76.3626 190.522 76.0126 190.628 75.6876C190.728 75.3576 191.083 75.1676 191.408 75.2776C194.586 76.2626 197.799 77.3276 200.947 78.4326C201.272 78.5476 201.447 78.9076 201.332 79.2326C201.242 79.4876 201.002 79.6476 200.742 79.6476ZM74.1076 79.8425C73.8824 79.8425 73.6622 79.7175 73.5521 79.4975C73.397 79.1925 73.5171 78.8175 73.8273 78.6575C76.775 77.1575 79.8578 75.7525 82.9856 74.4875C83.2959 74.3475 83.6662 74.5125 83.7963 74.8325C83.9264 75.1525 83.7713 75.5175 83.451 75.6475C80.3582 76.8975 77.3105 78.2875 74.3929 79.7725C74.3028 79.8175 74.2027 79.8425 74.1076 79.8425ZM219.438 86.8925C219.358 86.8925 219.278 86.8775 219.193 86.8425C216.13 85.5425 213.013 84.2725 209.92 83.0775C209.6 82.9525 209.439 82.5875 209.565 82.2675C209.695 81.9475 210.055 81.7975 210.375 81.9125C213.478 83.1125 216.611 84.3875 219.684 85.6925C220.004 85.8275 220.149 86.1925 220.019 86.5125C219.914 86.7475 219.684 86.8925 219.438 86.8925ZM57.1925 90.4975C57.0023 90.4975 56.8221 90.4175 56.697 90.2575C56.4868 89.9825 56.5369 89.5875 56.8121 89.3775C59.4395 87.3575 62.217 85.4175 65.0645 83.6225C65.3598 83.4425 65.7452 83.5275 65.9303 83.8175C66.1155 84.1125 66.0254 84.4975 65.7351 84.6775C62.9176 86.4575 60.1751 88.3725 57.5728 90.3725C57.4627 90.4575 57.3276 90.4975 57.1925 90.4975ZM237.665 95.2525C237.575 95.2525 237.48 95.2325 237.39 95.1875C234.377 93.7025 231.339 92.2575 228.352 90.8875C228.041 90.7425 227.901 90.3675 228.046 90.0575C228.191 89.7425 228.562 89.6025 228.877 89.7475C231.87 91.1225 234.922 92.5775 237.945 94.0625C238.255 94.2175 238.381 94.5925 238.23 94.9025C238.12 95.1225 237.895 95.2525 237.665 95.2525ZM42.5743 104.133C42.4241 104.133 42.279 104.083 42.1589 103.973C41.8987 103.748 41.8786 103.353 42.1088 103.093C44.3258 100.598 46.688 98.1725 49.1352 95.8925C49.3854 95.6525 49.7807 95.6675 50.016 95.9175C50.2562 96.1725 50.2412 96.5675 49.9859 96.8025C47.5738 99.0625 45.2367 101.458 43.0397 103.923C42.9196 104.063 42.7494 104.133 42.5743 104.133ZM255.416 104.583C255.311 104.583 255.211 104.558 255.111 104.503C252.203 102.878 249.24 101.273 246.313 99.7325C246.007 99.5725 245.887 99.1925 246.047 98.8875C246.213 98.5825 246.593 98.4625 246.893 98.6225C249.836 100.173 252.804 101.783 255.721 103.413C256.021 103.583 256.132 103.963 255.961 104.263C255.846 104.468 255.636 104.583 255.416 104.583ZM272.681 114.793C272.571 114.793 272.456 114.763 272.351 114.698C269.499 112.918 266.621 111.173 263.798 109.503C263.498 109.328 263.398 108.943 263.578 108.648C263.748 108.343 264.134 108.248 264.434 108.428C267.262 110.098 270.154 111.853 273.017 113.638C273.307 113.823 273.397 114.208 273.212 114.503C273.097 114.688 272.892 114.793 272.681 114.793ZM30.6785 120.213C30.5634 120.213 30.4533 120.183 30.3482 120.118C30.058 119.938 29.9629 119.553 30.1431 119.258C31.9046 116.393 33.8013 113.583 35.7681 110.913C35.9783 110.638 36.3687 110.583 36.6439 110.783C36.9242 110.988 36.9792 111.378 36.774 111.653C34.8273 114.298 32.9556 117.073 31.209 119.913C31.0939 120.108 30.8887 120.213 30.6785 120.213ZM289.447 125.803C289.321 125.803 289.196 125.763 289.091 125.693C286.319 123.778 283.521 121.898 280.784 120.098C280.493 119.908 280.413 119.523 280.604 119.233C280.794 118.953 281.179 118.868 281.469 119.053C284.217 120.858 287.019 122.743 289.797 124.658C290.087 124.858 290.157 125.248 289.962 125.528C289.837 125.703 289.642 125.803 289.447 125.803ZM305.666 137.528C305.536 137.528 305.406 137.488 305.291 137.403C302.608 135.378 299.906 133.373 297.253 131.453C296.973 131.248 296.913 130.858 297.113 130.583C297.319 130.298 297.709 130.238 297.989 130.443C300.647 132.363 303.359 134.373 306.046 136.408C306.322 136.613 306.372 137.008 306.166 137.283C306.041 137.443 305.856 137.528 305.666 137.528ZM21.5654 138.023C21.4853 138.023 21.4053 138.008 21.3252 137.978C21.0049 137.843 20.8548 137.473 20.9899 137.158C22.3011 134.038 23.7274 130.968 25.2237 128.038C25.3788 127.728 25.7542 127.603 26.0645 127.763C26.3747 127.918 26.4948 128.298 26.3397 128.603C24.8534 131.513 23.4421 134.553 22.1409 137.643C22.0408 137.883 21.8106 138.023 21.5654 138.023ZM321.385 149.987C321.245 149.987 321.105 149.942 320.985 149.847C318.463 147.752 315.845 145.627 313.203 143.533C312.933 143.317 312.888 142.927 313.103 142.658C313.323 142.387 313.713 142.347 313.979 142.552C316.631 144.652 319.258 146.783 321.786 148.882C322.051 149.103 322.091 149.497 321.871 149.762C321.746 149.912 321.565 149.987 321.385 149.987ZM15.0245 156.938C14.9644 156.938 14.9094 156.933 14.8543 156.918C14.524 156.823 14.3238 156.478 14.4189 156.143C15.3297 152.888 16.3306 149.658 17.4016 146.548C17.5167 146.223 17.877 146.038 18.1973 146.158C18.5226 146.273 18.6978 146.628 18.5877 146.953C17.5217 150.043 16.5258 153.248 15.625 156.483C15.5499 156.758 15.2947 156.938 15.0245 156.938ZM336.569 163.168C336.414 163.168 336.269 163.113 336.149 163.003C333.681 160.763 331.154 158.518 328.637 156.333C328.377 156.113 328.352 155.713 328.577 155.453C328.802 155.188 329.197 155.173 329.457 155.393C331.985 157.583 334.512 159.833 336.989 162.078C337.245 162.313 337.265 162.708 337.029 162.963C336.904 163.098 336.739 163.168 336.569 163.168ZM10.7106 176.493C10.6756 176.493 10.6406 176.488 10.6055 176.483C10.2652 176.428 10.035 176.103 10.0951 175.763C10.6506 172.438 11.2911 169.123 11.9968 165.903C12.0718 165.568 12.4021 165.358 12.7424 165.423C13.0777 165.498 13.2929 165.833 13.2179 166.168C12.5172 169.368 11.8817 172.668 11.3262 175.968C11.2761 176.273 11.0109 176.493 10.7106 176.493ZM351.097 176.988C350.937 176.988 350.777 176.928 350.657 176.803C348.289 174.448 345.872 172.098 343.48 169.823C343.23 169.583 343.22 169.188 343.46 168.938C343.695 168.693 344.096 168.678 344.341 168.918C346.743 171.203 349.165 173.558 351.537 175.918C351.783 176.163 351.783 176.558 351.537 176.803C351.417 176.928 351.257 176.988 351.097 176.988ZM364.949 191.478C364.779 191.478 364.614 191.408 364.489 191.273C362.242 188.808 359.945 186.343 357.658 183.953C357.423 183.708 357.433 183.308 357.678 183.073C357.933 182.838 358.323 182.838 358.564 183.093C360.861 185.488 363.163 187.958 365.415 190.433C365.65 190.688 365.63 191.083 365.37 191.313C365.255 191.423 365.105 191.478 364.949 191.478ZM8.29394 196.368C8.27892 196.368 8.26391 196.368 8.24389 196.368C7.89858 196.338 7.64335 196.038 7.66837 195.698C7.93361 192.328 8.26892 188.963 8.66427 185.703C8.70431 185.363 8.98456 185.133 9.3599 185.158C9.70521 185.198 9.94542 185.508 9.90539 185.853C9.51504 189.098 9.17974 192.443 8.9145 195.793C8.89448 196.118 8.61923 196.368 8.29394 196.368ZM378.061 206.643C377.881 206.643 377.701 206.563 377.576 206.413C375.494 203.873 373.327 201.298 371.13 198.758C370.905 198.498 370.935 198.103 371.2 197.878C371.46 197.648 371.856 197.683 372.081 197.943C374.283 200.488 376.46 203.073 378.547 205.623C378.767 205.888 378.727 206.283 378.457 206.503C378.341 206.598 378.201 206.643 378.061 206.643ZM7.48274 216.382C7.13743 216.378 6.85718 216.097 6.85718 215.753C6.87219 212.397 6.94726 209.022 7.07738 205.717C7.09239 205.378 7.35763 205.092 7.72796 205.117C8.07327 205.132 8.34352 205.423 8.3285 205.768C8.19839 209.057 8.12332 212.417 8.1083 215.757C8.1083 216.102 7.82805 216.382 7.48274 216.382ZM390.327 222.498C390.132 222.498 389.942 222.413 389.822 222.243C387.855 219.548 385.833 216.853 383.811 214.243C383.601 213.968 383.651 213.578 383.926 213.363C384.197 213.153 384.587 213.198 384.802 213.478C386.834 216.098 388.861 218.803 390.833 221.508C391.033 221.788 390.973 222.178 390.698 222.378C390.582 222.463 390.452 222.498 390.327 222.498ZM8.04814 236.413C7.71784 236.413 7.44259 236.153 7.42257 235.823C7.22239 232.433 7.07226 229.053 6.98218 225.793C6.97217 225.448 7.24241 225.158 7.58772 225.148H7.60774C7.94304 225.148 8.22329 225.418 8.2333 225.758C8.32338 229.008 8.47352 232.368 8.6737 235.748C8.69372 236.093 8.42848 236.388 8.08317 236.413H8.04814ZM401.612 239.058C401.407 239.058 401.202 238.958 401.082 238.768C399.32 235.993 397.469 233.183 395.582 230.418C395.392 230.133 395.462 229.743 395.747 229.548C396.027 229.353 396.423 229.428 396.618 229.713C398.51 232.488 400.371 235.313 402.138 238.098C402.323 238.393 402.238 238.778 401.948 238.963C401.843 239.028 401.728 239.058 401.612 239.058ZM411.742 256.348C411.521 256.348 411.306 256.228 411.191 256.018C409.63 253.118 407.983 250.188 406.292 247.303C406.121 247.008 406.222 246.628 406.517 246.448C406.807 246.268 407.197 246.373 407.373 246.673C409.069 249.568 410.726 252.513 412.292 255.428C412.457 255.728 412.342 256.113 412.037 256.273C411.947 256.323 411.842 256.348 411.742 256.348ZM9.81484 256.373C9.49956 256.373 9.22932 256.138 9.19429 255.818C8.79893 252.453 8.45862 249.088 8.16836 245.838C8.13833 245.493 8.39356 245.188 8.73387 245.158C9.13924 245.123 9.38446 245.383 9.41448 245.723C9.69974 248.968 10.0451 252.318 10.4354 255.678C10.4754 256.018 10.2302 256.328 9.88491 256.368C9.85988 256.373 9.83987 256.373 9.81484 256.373ZM420.494 274.363C420.254 274.363 420.024 274.223 419.919 273.988C418.598 270.943 417.191 267.888 415.745 264.913C415.595 264.603 415.725 264.228 416.035 264.078C416.341 263.923 416.716 264.053 416.871 264.363C418.327 267.363 419.739 270.428 421.07 273.488C421.205 273.808 421.06 274.173 420.745 274.313C420.665 274.343 420.579 274.363 420.494 274.363ZM12.6323 276.213C12.332 276.213 12.0668 275.993 12.0167 275.688C11.4512 272.343 10.9357 269.008 10.4803 265.773C10.4303 265.433 10.6705 265.113 11.0108 265.068C11.3311 265.013 11.6664 265.253 11.7164 265.598C12.1719 268.823 12.6873 272.148 13.2478 275.483C13.3079 275.823 13.0777 276.143 12.7374 276.203C12.7023 276.208 12.6673 276.213 12.6323 276.213ZM427.561 293.093C427.296 293.093 427.05 292.928 426.965 292.663C425.969 289.553 424.863 286.388 423.672 283.243C423.552 282.918 423.712 282.558 424.038 282.438C424.358 282.298 424.718 282.473 424.843 282.798C426.044 285.963 427.155 289.153 428.156 292.278C428.261 292.608 428.081 292.963 427.751 293.068C427.686 293.088 427.621 293.093 427.561 293.093ZM16.4107 295.888C16.1204 295.888 15.8652 295.688 15.8001 295.393C15.0995 292.153 14.4239 288.843 13.7983 285.563C13.7283 285.223 13.9535 284.898 14.2938 284.833C14.6241 284.743 14.9594 284.988 15.0244 285.328C15.65 288.598 16.3206 291.898 17.0212 295.133C17.0963 295.468 16.8811 295.803 16.5408 295.873C16.5008 295.883 16.4557 295.888 16.4107 295.888ZM432.565 312.468C432.275 312.468 432.01 312.258 431.955 311.958C431.334 308.773 430.594 305.503 429.748 302.238C429.663 301.903 429.863 301.563 430.198 301.478C430.523 301.393 430.869 301.593 430.959 301.928C431.81 305.213 432.56 308.508 433.181 311.723C433.246 312.058 433.026 312.388 432.685 312.453C432.645 312.463 432.605 312.468 432.565 312.468ZM21.0699 315.373C20.7896 315.373 20.5394 315.183 20.4643 314.903C19.6186 311.673 18.8029 308.428 18.0272 305.178C17.9471 304.838 18.1523 304.503 18.4876 304.423C18.8179 304.343 19.1632 304.548 19.2432 304.883C20.024 308.128 20.8297 311.363 21.6754 314.588C21.7605 314.923 21.5653 315.263 21.23 315.353C21.175 315.363 21.1199 315.373 21.0699 315.373ZM435.043 332.308C434.712 332.308 434.437 332.048 434.417 331.713C434.247 328.448 433.952 325.108 433.531 321.793C433.486 321.453 433.731 321.138 434.072 321.098C434.447 321.068 434.727 321.298 434.772 321.638C435.193 324.983 435.498 328.353 435.668 331.648C435.688 331.993 435.423 332.288 435.078 332.308H435.043ZM26.7 335.108C26.4348 335.108 26.1895 334.938 26.1045 334.668L25.9543 334.183C24.9785 331.008 24.0176 327.773 23.1118 324.573C23.0167 324.243 23.2069 323.898 23.5422 323.803C23.8875 323.713 24.2228 323.903 24.3129 324.233C25.2237 327.423 26.1795 330.653 27.1554 333.823L27.2955 334.298C27.4006 334.628 27.2155 334.973 26.8852 335.078C26.8251 335.098 26.7601 335.108 26.7 335.108ZM434.717 352.308C434.702 352.308 434.692 352.308 434.677 352.308C434.332 352.283 434.072 351.983 434.097 351.638C434.327 348.368 434.487 345.018 434.562 341.678C434.567 341.333 434.812 341.083 435.203 341.068C435.543 341.073 435.818 341.358 435.813 341.708C435.738 345.068 435.578 348.438 435.343 351.728C435.323 352.058 435.042 352.308 434.717 352.308ZM32.9006 354.148C32.6454 354.148 32.4002 353.988 32.3101 353.728C31.2291 350.573 30.1681 347.403 29.1322 344.223C29.0271 343.898 29.2073 343.543 29.5376 343.438C29.8679 343.333 30.2182 343.513 30.3233 343.838C31.3592 347.008 32.4152 350.173 33.4961 353.323C33.6062 353.648 33.4311 354.003 33.1058 354.118C33.0357 354.138 32.9707 354.148 32.9006 354.148ZM432.26 372.158C432.225 372.158 432.19 372.153 432.15 372.148C431.81 372.083 431.584 371.758 431.644 371.423C432.22 368.203 432.72 364.888 433.136 361.563C433.176 361.218 433.506 360.973 433.831 361.018C434.177 361.063 434.417 361.373 434.377 361.718C433.962 365.068 433.456 368.403 432.876 371.638C432.821 371.943 432.56 372.158 432.26 372.158ZM39.6816 372.968C39.4314 372.968 39.1912 372.812 39.1011 372.562C37.92 369.448 36.764 366.318 35.628 363.178C35.5079 362.853 35.678 362.493 36.0033 362.373C36.3336 362.263 36.6839 362.428 36.804 362.753C37.9351 365.888 39.0911 369.013 40.2672 372.118C40.3873 372.443 40.2271 372.803 39.9068 372.923C39.8318 372.953 39.7567 372.968 39.6816 372.968ZM47.0883 391.588C46.8431 391.588 46.6129 391.443 46.5128 391.203C45.2266 388.128 43.9705 385.033 42.7294 381.913C42.5993 381.593 42.7594 381.228 43.0797 381.103C43.39 380.978 43.7603 381.128 43.8904 381.448C45.1265 384.563 46.3877 387.653 47.6638 390.723C47.7989 391.043 47.6488 391.408 47.3285 391.538C47.2485 391.573 47.1684 391.588 47.0883 391.588ZM427.611 391.603C427.556 391.603 427.496 391.598 427.431 391.578C427.1 391.478 426.915 391.128 427.015 390.798C427.966 387.638 428.842 384.398 429.608 381.178C429.693 380.843 430.013 380.638 430.363 380.713C430.699 380.798 430.909 381.133 430.829 381.468C430.053 384.713 429.172 387.973 428.211 391.158C428.131 391.428 427.881 391.603 427.611 391.603ZM55.1156 409.953C54.8803 409.953 54.6551 409.818 54.55 409.588C53.1638 406.563 51.7926 403.508 50.4463 400.433C50.3112 400.118 50.4564 399.748 50.7716 399.608C51.0869 399.478 51.4573 399.613 51.5974 399.933C52.9386 403.003 54.2998 406.048 55.6861 409.068C55.8312 409.383 55.6911 409.753 55.3808 409.898C55.2957 409.938 55.2056 409.953 55.1156 409.953ZM420.695 410.368C420.61 410.368 420.525 410.353 420.439 410.313C420.124 410.178 419.984 409.808 420.119 409.493C421.45 406.473 422.701 403.363 423.852 400.248C423.973 399.928 424.328 399.758 424.658 399.878C424.979 399.998 425.144 400.358 425.024 400.683C423.867 403.823 422.601 406.953 421.265 409.993C421.16 410.228 420.935 410.368 420.695 410.368ZM63.8084 428.008C63.5782 428.008 63.358 427.883 63.2479 427.668C61.7515 424.698 60.2702 421.698 58.8089 418.668C58.6588 418.358 58.7889 417.983 59.1042 417.833C59.4244 417.688 59.7898 417.813 59.9399 418.123C61.3962 421.143 62.8675 424.138 64.3639 427.103C64.519 427.413 64.3989 427.788 64.0886 427.943C63.9986 427.988 63.9035 428.008 63.8084 428.008ZM411.546 428.168C411.436 428.168 411.326 428.143 411.226 428.083C410.926 427.903 410.831 427.523 411.006 427.228C412.702 424.363 414.329 421.423 415.835 418.483C415.995 418.173 416.366 418.053 416.676 418.213C416.986 418.373 417.106 418.748 416.951 419.053C415.43 422.013 413.793 424.978 412.082 427.863C411.967 428.058 411.757 428.168 411.546 428.168ZM400.376 444.768C400.246 444.768 400.111 444.728 399.996 444.643C399.726 444.438 399.671 444.043 399.876 443.768C401.883 441.118 403.834 438.393 405.676 435.658C405.871 435.373 406.257 435.293 406.547 435.488C406.832 435.683 406.907 436.073 406.712 436.358C404.86 439.113 402.899 441.858 400.877 444.523C400.752 444.683 400.567 444.768 400.376 444.768ZM73.2019 445.713C72.9817 445.713 72.7715 445.598 72.6564 445.393C71.0599 442.533 69.4485 439.568 67.8621 436.578C67.7019 436.273 67.812 435.893 68.1173 435.733C68.4276 435.583 68.8029 435.688 68.963 435.993C70.5495 438.973 72.1559 441.933 73.7474 444.783C73.9175 445.083 73.8074 445.468 73.5071 445.633C73.4121 445.688 73.307 445.713 73.2019 445.713ZM387.475 460.058C387.325 460.058 387.169 460.003 387.049 459.888C386.799 459.658 386.784 459.258 387.019 459.008C389.301 456.563 391.533 454.048 393.65 451.543C393.875 451.288 394.271 451.248 394.531 451.468C394.796 451.693 394.831 452.088 394.606 452.353C392.474 454.873 390.232 457.398 387.935 459.863C387.81 459.993 387.645 460.058 387.475 460.058ZM83.361 462.988C83.1558 462.988 82.9506 462.883 82.8305 462.693C81.0939 459.888 79.3474 456.998 77.6408 454.103C77.4707 453.803 77.5658 453.418 77.866 453.243C78.1613 453.068 78.5466 453.173 78.7218 453.468C80.4233 456.358 82.1599 459.238 83.8965 462.033C84.0766 462.328 83.9865 462.713 83.6913 462.893C83.5912 462.958 83.4761 462.988 83.361 462.988ZM373.157 474.053C372.982 474.053 372.812 473.983 372.686 473.843C372.456 473.588 372.481 473.193 372.736 472.963C375.249 470.713 377.701 468.423 380.038 466.143C380.283 465.903 380.684 465.913 380.919 466.153C381.164 466.403 381.159 466.798 380.909 467.038C378.562 469.328 376.094 471.633 373.572 473.893C373.452 473.998 373.302 474.053 373.157 474.053ZM94.3709 479.738C94.1707 479.738 93.9755 479.643 93.8554 479.468C91.9637 476.753 90.072 473.953 88.2353 471.148C88.0402 470.863 88.1252 470.473 88.4155 470.283C88.7008 470.098 89.0861 470.178 89.2813 470.468C91.1129 473.263 92.9996 476.048 94.8813 478.753C95.0815 479.038 95.0114 479.428 94.7262 479.623C94.6161 479.698 94.496 479.738 94.3709 479.738ZM357.713 486.818C357.523 486.818 357.338 486.733 357.218 486.573C357.007 486.298 357.057 485.908 357.333 485.698C359.99 483.658 362.627 481.568 365.16 479.478C365.425 479.253 365.815 479.293 366.035 479.558C366.256 479.828 366.221 480.218 365.955 480.438C363.408 482.543 360.766 484.643 358.093 486.688C357.978 486.778 357.843 486.818 357.713 486.818ZM106.317 495.823C106.136 495.823 105.951 495.743 105.826 495.588C103.804 493.033 101.747 490.353 99.7106 487.618C99.5055 487.343 99.5655 486.948 99.8408 486.743C100.121 486.543 100.511 486.598 100.722 486.873C102.743 489.598 104.79 492.268 106.807 494.808C107.022 495.078 106.977 495.473 106.707 495.688C106.592 495.778 106.457 495.823 106.317 495.823ZM341.413 498.473C341.213 498.473 341.018 498.373 340.893 498.193C340.703 497.908 340.778 497.518 341.068 497.328C343.85 495.463 346.618 493.548 349.295 491.638C349.571 491.433 349.966 491.503 350.166 491.783C350.366 492.063 350.306 492.458 350.026 492.658C347.339 494.573 344.561 496.493 341.764 498.368C341.658 498.438 341.533 498.473 341.413 498.473ZM324.463 509.163C324.248 509.163 324.043 509.053 323.922 508.858C323.747 508.563 323.842 508.178 324.143 507.998C327.055 506.263 329.928 504.508 332.675 502.773C332.971 502.598 333.356 502.678 333.541 502.968C333.721 503.263 333.636 503.648 333.346 503.833C330.583 505.568 327.706 507.333 324.783 509.073C324.683 509.133 324.573 509.163 324.463 509.163ZM119.338 511.053C119.173 511.053 119.003 510.983 118.883 510.853C116.656 508.448 114.409 505.918 112.207 503.343C111.987 503.083 112.012 502.683 112.277 502.463C112.542 502.243 112.938 502.268 113.158 502.533C115.35 505.098 117.587 507.608 119.799 510.003C120.034 510.258 120.019 510.653 119.764 510.888C119.644 510.998 119.493 511.053 119.338 511.053ZM307.012 519.033C306.787 519.033 306.572 518.913 306.462 518.708C306.297 518.403 306.412 518.023 306.712 517.858C309.665 516.268 312.587 514.658 315.48 513.023C315.78 512.853 316.16 512.958 316.336 513.258C316.501 513.558 316.396 513.938 316.095 514.113C313.198 515.748 310.265 517.363 307.307 518.958C307.212 519.008 307.112 519.033 307.012 519.033ZM133.591 525.133C133.441 525.133 133.291 525.078 133.176 524.973C130.719 522.773 128.256 520.453 125.864 518.078C125.614 517.833 125.614 517.438 125.859 517.193C126.099 516.948 126.495 516.948 126.74 517.188C129.122 519.553 131.569 521.853 134.012 524.043C134.267 524.273 134.287 524.668 134.057 524.928C133.932 525.063 133.761 525.133 133.591 525.133ZM289.196 528.218C288.966 528.218 288.741 528.093 288.636 527.873C288.481 527.563 288.611 527.183 288.916 527.033C291.919 525.543 294.901 524.043 297.859 522.518C298.159 522.363 298.535 522.483 298.7 522.788C298.855 523.093 298.74 523.473 298.43 523.633C295.467 525.158 292.484 526.663 289.471 528.153C289.381 528.198 289.286 528.218 289.196 528.218ZM271.095 536.853C270.86 536.853 270.635 536.718 270.529 536.488C270.384 536.178 270.519 535.803 270.835 535.663C273.872 534.258 276.9 532.838 279.903 531.408C280.208 531.268 280.594 531.393 280.739 531.703C280.889 532.013 280.754 532.388 280.443 532.538C277.431 533.973 274.403 535.388 271.355 536.793C271.275 536.833 271.185 536.853 271.095 536.853ZM149.24 537.628C149.12 537.628 148.995 537.588 148.885 537.513C146.208 535.633 143.5 533.603 140.843 531.473C140.572 531.258 140.527 530.863 140.743 530.593C140.968 530.328 141.358 530.283 141.623 530.498C144.261 532.608 146.943 534.628 149.601 536.488C149.886 536.688 149.956 537.078 149.756 537.363C149.636 537.533 149.44 537.628 149.24 537.628ZM252.839 545.028C252.598 545.028 252.368 544.888 252.263 544.653C252.128 544.338 252.273 543.968 252.588 543.828C255.651 542.493 258.704 541.148 261.737 539.788C262.052 539.648 262.422 539.788 262.562 540.103C262.702 540.418 262.562 540.788 262.252 540.928C259.209 542.288 256.157 543.638 253.089 544.973C253.009 545.008 252.924 545.028 252.839 545.028ZM166.436 547.873C166.341 547.873 166.246 547.853 166.155 547.808C163.218 546.363 160.245 544.748 157.318 542.993C157.022 542.818 156.927 542.433 157.102 542.138C157.277 541.843 157.663 541.743 157.963 541.923C160.861 543.653 163.803 545.258 166.711 546.688C167.021 546.843 167.146 547.213 166.996 547.523C166.886 547.748 166.661 547.873 166.436 547.873ZM234.357 552.783C234.102 552.783 233.861 552.623 233.771 552.368C233.651 552.043 233.821 551.683 234.147 551.568C235.598 551.043 237.084 550.463 238.566 549.838C240.172 549.158 241.784 548.478 243.39 547.793C243.705 547.663 244.076 547.803 244.211 548.118C244.346 548.438 244.201 548.808 243.886 548.938C242.274 549.628 240.663 550.313 239.051 550.993C237.55 551.623 236.043 552.213 234.572 552.743C234.502 552.768 234.427 552.783 234.357 552.783ZM185.128 554.938C185.077 554.938 185.022 554.928 184.972 554.918C181.795 554.078 178.572 553.038 175.389 551.828C175.063 551.708 174.898 551.343 175.023 551.023C175.149 550.698 175.509 550.538 175.829 550.663C178.977 551.853 182.16 552.883 185.288 553.708C185.623 553.798 185.823 554.138 185.733 554.468C185.658 554.753 185.408 554.938 185.128 554.938ZM214.884 557.318C214.564 557.318 214.294 557.078 214.259 556.758C214.224 556.413 214.474 556.108 214.814 556.068C218.082 555.723 221.38 555.163 224.613 554.403C224.964 554.318 225.289 554.538 225.364 554.868C225.449 555.203 225.239 555.543 224.903 555.618C221.615 556.393 218.267 556.958 214.949 557.313C214.924 557.318 214.904 557.318 214.884 557.318ZM204.875 557.748H204.865C201.547 557.683 198.174 557.403 194.831 556.923C194.491 556.873 194.256 556.558 194.306 556.218C194.351 555.873 194.636 555.628 195.011 555.688C198.299 556.163 201.622 556.433 204.89 556.498C205.231 556.508 205.511 556.793 205.501 557.138C205.496 557.478 205.216 557.748 204.875 557.748Z" fill="#D8D5DB"/>
<mask id="mask1_0_402" style="mask-type:alpha" maskUnits="userSpaceOnUse" x="47" y="82" width="365" height="492">
<path fill-rule="evenodd" clip-rule="evenodd" d="M47.3237 82.1295H411.34V573.31H47.3237V82.1295Z" fill="white"/>
</mask>
<g mask="url(#mask1_0_402)">
<path fill-rule="evenodd" clip-rule="evenodd" d="M386.429 494.68C383.626 495.43 380.824 496.88 378.572 499.43C377.271 500.93 375.569 503.73 374.068 506.68C373.717 496.58 373.367 487.98 373.017 482.68C373.968 482.58 374.518 482.58 374.518 482.58C374.518 481.38 374.518 480.18 374.468 478.88C374.218 454.53 371.566 412.18 368.062 369.98C369.314 372.58 370.515 374.98 371.666 377.13C371.716 377.88 371.716 378.63 371.866 379.43C373.717 389.53 382.976 445.43 385.678 479.13C386.179 485.18 386.429 490.48 386.429 494.68ZM408.699 371.48V371.38C405.796 361.93 396.038 333.78 384.928 305.83L397.239 301.63C397.239 301.63 361.206 237.58 340.137 223.48C340.087 223.43 340.037 223.43 339.987 223.38C332.58 216.48 321.771 211.98 305.606 210.13C305.506 196.78 306.507 174.28 307.658 157.03C315.966 155.13 319.969 145.38 320.52 143.23C321.671 138.83 320.62 135.18 318.468 132.83C319.118 127.38 320.219 116.78 319.919 107.68C319.669 99.3295 318.318 92.2795 314.414 91.4295C314.464 91.2795 314.564 91.1795 314.614 91.0795C315.915 86.9295 313.463 82.3295 313.363 82.1295L311.161 83.3295C311.762 84.3795 313.013 87.6795 312.212 90.2795C308.509 86.1795 296.998 84.5295 284.087 84.7795C266.021 85.0795 245.302 89.2295 239.697 95.7295C235.793 100.23 236.944 102.68 240.998 103.78C240.398 107.98 240.147 111.63 240.047 114.98C239.447 116.53 238.896 118.13 238.346 119.83C236.894 120.83 235.493 122.28 234.442 124.53L236.744 125.58C236.794 125.48 236.844 125.43 236.894 125.33C236.294 127.88 235.743 130.48 235.343 133.33C230.839 164.33 223.482 195.18 254.26 195.53C254.21 199.03 254.01 202.43 253.659 205.63C253.409 208.18 253.059 210.58 252.609 212.73C240.898 215.58 231.74 220.08 225.384 226.13C202.764 244.78 174.188 304.68 174.188 304.68L183.797 309.43C176.69 323.23 169.684 337.33 164.429 348.78C140.107 331.98 97.3688 300.83 84.7574 287.18C84.7574 287.13 84.7074 287.13 84.6573 287.08C85.1578 281.83 84.2069 273.33 82.8057 268.53C82.8057 268.43 82.8057 268.33 82.7556 268.18C82.6555 267.93 82.5554 267.78 82.5054 267.58C82.4053 267.28 82.3052 266.93 82.2051 266.68C81.9549 266.03 81.7547 265.58 81.5545 265.18C78.2015 257.78 72.8967 254.88 69.7439 245.03C68.0924 239.78 64.0388 241.93 62.4874 245.43L50.5767 218.83L47.3237 220.28L62.6375 254.63C59.0343 253.03 55.8814 252.08 53.7295 252.83C50.7768 253.83 47.5239 268.68 48.9252 273.98C50.3264 279.23 64.6894 296.13 70.0442 299.03C70.4445 299.23 70.8949 299.38 71.2953 299.43C79.9531 311.53 137.355 379.63 160.426 391.43C174.738 398.68 185.498 392.43 189.051 383.13C193.655 375.73 202.113 361.28 211.321 344.58C208.319 391.08 202.563 443.48 191.704 480.23C192.705 480.38 193.756 480.53 194.806 480.68C191.754 495.93 189.502 515.98 187.9 536.33C199.21 541.13 210.721 545.48 222.331 549.38C274.128 566.88 327.876 575.63 374.618 572.78C375.369 570.48 375.719 568.079 375.669 565.53C375.419 555.53 375.119 543.28 374.819 531.18C377.321 537.68 380.574 543.03 383.176 544.38C385.928 545.78 398.94 537.83 401.793 533.08C404.595 528.48 406.747 506.38 405.096 500.48C404.996 500.08 404.695 499.78 404.495 499.43C405.096 496.13 405.997 488.93 406.997 479.53C410.2 447.829 414.004 390.88 408.699 371.48Z" fill="#D1CDD3"/>
</g>
<path fill-rule="evenodd" clip-rule="evenodd" d="M280.89 275.571L248.265 254.301C248.265 254.301 215.841 313.916 199.852 348.796C175.545 331.981 132.807 300.846 120.19 287.166C120.155 287.131 120.12 287.111 120.085 287.076C120.581 281.816 119.63 273.341 118.243 268.536C118.213 268.411 118.208 268.311 118.163 268.176C118.093 267.951 117.998 267.771 117.923 267.556C117.823 267.276 117.733 266.921 117.633 266.681C117.368 266.036 117.162 265.566 116.977 265.161C113.624 257.806 108.31 254.866 105.177 245.046C102.995 238.191 96.7041 243.941 97.3246 248.886C97.3246 248.886 98.2605 252.096 99.3164 255.186C95.1577 253.206 91.5644 252.006 89.1423 252.821C86.2096 253.806 82.9317 268.676 84.3379 273.991C85.7192 279.221 100.102 296.131 105.487 299.041C105.877 299.251 106.288 299.366 106.708 299.431C115.391 311.546 172.793 379.651 195.868 391.411C210.161 398.696 220.896 392.421 224.484 383.141C235.394 365.446 268.409 307.856 280.89 275.571Z" fill="#FFAD69"/>
<path fill-rule="evenodd" clip-rule="evenodd" d="M285.33 238.945C290.274 263.795 270.396 334.51 270.396 334.51L209.592 304.695C209.592 304.695 272.288 173.39 285.33 238.945Z" fill="#EA3939"/>
<path fill-rule="evenodd" clip-rule="evenodd" d="M411.102 565.529C411.102 566.329 411.102 567.129 411.002 567.929C399.542 570.429 387.331 572.079 374.619 572.779C327.877 575.629 274.129 566.879 222.332 549.379C224.134 522.679 226.936 494.829 231.24 476.029L374.469 478.879L385.679 479.129L406.998 479.529L408.249 479.579C409.25 490.979 410.451 537.129 411.102 565.529Z" fill="#232323"/>
<path fill-rule="evenodd" clip-rule="evenodd" d="M329.295 209.297C368.6 210.592 381.887 223.847 388.663 246.772C396.355 272.802 409.908 430.022 409.908 482.557C409.908 482.557 292.282 490.882 227.118 480.212C247.546 411.262 249.758 287.277 250.169 250.342C250.474 222.627 279.465 207.652 329.295 209.297Z" fill="#FF4E4A"/>
<path fill-rule="evenodd" clip-rule="evenodd" d="M294.669 145.007C290.796 142.097 270.598 144.737 276.418 103.652C278.535 88.662 292.627 98.667 302.601 100.667C312.575 102.667 306.235 145.747 306.235 145.747L294.669 145.007Z" fill="#232323"/>
<path fill-rule="evenodd" clip-rule="evenodd" d="M344.959 135.166C343.282 146.056 339.929 204.976 341.325 218.656C342.722 232.341 276.482 236.251 285.145 221.171C293.813 206.091 287.662 156.106 287.662 156.106L344.959 135.166Z" fill="#FFAD69"/>
<path fill-rule="evenodd" clip-rule="evenodd" d="M340.372 136.831L287.669 156.111C287.669 156.111 291.228 185.226 289.081 205.721C329.267 202.616 339.581 151.906 340.262 142.141C340.372 140.301 340.427 138.526 340.372 136.831Z" fill="#D88344"/>
<path fill-rule="evenodd" clip-rule="evenodd" d="M270.749 133.313C265.864 166.948 257.572 200.483 298.379 194.963C339.19 189.443 345.531 137.168 345.411 127.308C344.775 74.6925 280.352 67.1725 270.749 133.313Z" fill="#FFAD69"/>
<path fill-rule="evenodd" clip-rule="evenodd" d="M349.811 91.4105C349.861 91.2805 349.971 91.1905 350.017 91.0605C351.343 86.9355 348.901 82.3405 348.795 82.1455L346.593 83.3305C346.613 83.3705 348.615 87.1755 347.634 90.2705C338.696 80.4055 284.703 84.6105 275.099 95.7555C262.898 109.916 300.422 103.531 321.566 99.9555C324.529 112.326 337.951 132.811 341.819 135.721L353.385 136.466C353.385 136.466 359.695 93.5805 349.811 91.4105Z" fill="#232323"/>
<path fill-rule="evenodd" clip-rule="evenodd" d="M439.915 499.414C442.507 485.024 451.045 396.629 444.133 371.499C444.123 371.459 444.128 371.419 444.118 371.374C439.294 355.644 415.338 287.839 397.992 255.734L360.613 266.694C360.613 266.694 391.896 348.264 407.065 377.114C407.11 377.889 407.11 378.649 407.26 379.449C409.492 391.349 421.963 466.854 421.823 494.664C419.061 495.434 416.248 496.884 414.011 499.434C411.164 502.684 406.199 512.018 406.55 516.159C407.546 527.974 414.116 542.049 418.615 544.374C421.368 545.794 434.34 537.809 437.187 533.104C439.99 528.474 442.152 506.389 440.5 500.499C440.39 500.094 440.12 499.769 439.915 499.414Z" fill="#FFAD69"/>
<path fill-rule="evenodd" clip-rule="evenodd" d="M375.558 223.486C396.642 237.566 432.634 301.611 432.634 301.611L368.541 323.486C368.541 323.486 319.938 186.346 375.558 223.486Z" fill="#FF4E4A"/>
<path fill-rule="evenodd" clip-rule="evenodd" d="M305.113 131.647C305.243 133.287 304.357 134.692 303.126 134.792C301.895 134.887 300.794 133.642 300.664 132.002C300.529 130.367 301.42 128.957 302.651 128.862C303.877 128.762 304.978 130.007 305.113 131.647Z" fill="#232323"/>
<path fill-rule="evenodd" clip-rule="evenodd" d="M279.118 132.336C279.248 133.976 278.363 135.381 277.132 135.481C275.905 135.576 274.799 134.331 274.669 132.696C274.534 131.056 275.425 129.646 276.656 129.551C277.882 129.451 278.988 130.696 279.118 132.336Z" fill="#232323"/>
<path fill-rule="evenodd" clip-rule="evenodd" d="M311.505 122.446C308.027 117.111 302.042 118.381 301.982 118.391L301.431 115.951C301.747 115.886 309.183 114.311 313.602 121.081L311.505 122.446Z" fill="#232323"/>
<path fill-rule="evenodd" clip-rule="evenodd" d="M272.156 125.561L269.884 124.521C273.257 117.166 280.839 117.641 281.159 117.656L280.984 120.151C280.749 120.136 274.798 119.821 272.156 125.561Z" fill="#232323"/>
<path fill-rule="evenodd" clip-rule="evenodd" d="M296.759 162.617C295.097 162.617 294.046 162.432 294.006 162.422L294.462 159.967C294.922 160.052 305.907 161.912 312.027 151.737L314.169 153.027C309.12 161.417 300.987 162.617 296.759 162.617Z" fill="#232323"/>
<path fill-rule="evenodd" clip-rule="evenodd" d="M277.52 151.222L283.886 129.542L286.283 130.242L280.873 148.677L289.636 148.562L289.671 151.062L277.52 151.222Z" fill="#D88344"/>
<path fill-rule="evenodd" clip-rule="evenodd" d="M115.396 284.682L112.124 286.142L82.7471 220.287L86.015 218.827L115.396 284.682Z" fill="#232323"/>
<path fill-rule="evenodd" clip-rule="evenodd" d="M335.062 139.446C331.374 147.746 326.76 155.776 338.335 157.266C349.911 158.761 355.295 145.776 355.951 143.231C359.449 129.661 342.309 123.126 335.062 139.446Z" fill="#FFAD69"/>
<path fill-rule="evenodd" clip-rule="evenodd" d="M161.903 0.00201416H44.1423C40.0386 0.00201416 36.7106 3.32201 36.7106 7.42201V49.317C36.7106 53.417 40.0386 56.742 44.1423 56.742H51.3137L59.401 67.537C61.1976 69.937 64.966 69.222 65.7617 66.332L68.3841 56.742H161.903C166.007 56.742 169.33 53.417 169.33 49.317V7.42201C169.33 3.32201 166.007 0.00201416 161.903 0.00201416Z" fill="#4D8DFF"/>
<mask id="mask2_0_402" style="mask-type:alpha" maskUnits="userSpaceOnUse" x="0" y="0" width="521" height="574">
<path fill-rule="evenodd" clip-rule="evenodd" d="M0.531494 573.31H520.785V0H0.531494V573.31Z" fill="white"/>
</mask>
<g mask="url(#mask2_0_402)">
<path fill-rule="evenodd" clip-rule="evenodd" d="M48.2794 13.495H152.398V10.995H48.2794V13.495Z" fill="white"/>
<path fill-rule="evenodd" clip-rule="evenodd" d="M48.2794 25.325H117.031V22.825H48.2794V25.325Z" fill="white"/>
<path fill-rule="evenodd" clip-rule="evenodd" d="M48.2794 37.155H134.217V34.655H48.2794V37.155Z" fill="white"/>
<path fill-rule="evenodd" clip-rule="evenodd" d="M134.217 140.193H44.1413C40.0376 140.193 36.7146 143.518 36.7146 147.613V189.508C36.7146 193.608 40.0376 196.933 44.1413 196.933H51.3127L59.4 207.728C61.1966 210.128 64.97 209.413 65.7607 206.523L68.3831 196.933H134.217C138.321 196.933 141.644 193.608 141.644 189.508V147.613C141.644 143.518 138.321 140.193 134.217 140.193Z" fill="#FF4E4A"/>
<path fill-rule="evenodd" clip-rule="evenodd" d="M48.2794 153.685H96.2076V151.185H48.2794V153.685Z" fill="white"/>
<path fill-rule="evenodd" clip-rule="evenodd" d="M106.127 153.685H122.651V151.185H106.127V153.685Z" fill="white"/>
<path fill-rule="evenodd" clip-rule="evenodd" d="M48.2794 165.515H82.3251V163.015H48.2794V165.515Z" fill="white"/>
<path fill-rule="evenodd" clip-rule="evenodd" d="M48.2794 177.345H114.054V174.845H48.2794V177.345Z" fill="white"/>
<path fill-rule="evenodd" clip-rule="evenodd" d="M104.053 70.058H213.722C217.821 70.058 221.144 73.383 221.144 77.478V119.378C221.144 123.473 217.821 126.798 213.722 126.798H206.546L198.458 137.598C196.662 139.993 192.888 139.278 192.103 136.388L189.475 126.798H104.053C99.9496 126.798 96.6266 123.473 96.6266 119.378V77.478C96.6266 73.383 99.9496 70.058 104.053 70.058Z" fill="#FFC84D"/>
<path fill-rule="evenodd" clip-rule="evenodd" d="M165.62 83.55H209.58V81.05H165.62V83.55Z" fill="white"/>
<path fill-rule="evenodd" clip-rule="evenodd" d="M114.059 95.385H209.58V92.885H114.059V95.385Z" fill="white"/>
<path fill-rule="evenodd" clip-rule="evenodd" d="M162.647 107.215H209.58V104.715H162.647V107.215Z" fill="white"/>
<path fill-rule="evenodd" clip-rule="evenodd" d="M133.226 107.215H154.71V104.715H133.226V107.215Z" fill="white"/>
<path fill-rule="evenodd" clip-rule="evenodd" d="M294.234 276.82C275.102 276.82 259.533 292.375 259.533 311.49C259.533 330.61 275.102 346.165 294.234 346.165C313.372 346.165 328.941 330.61 328.941 311.49C328.941 292.375 313.372 276.82 294.234 276.82ZM294.234 348.665C273.721 348.665 257.031 331.99 257.031 311.49C257.031 290.995 273.721 274.32 294.234 274.32C314.753 274.32 331.443 290.995 331.443 311.49C331.443 331.99 314.753 348.665 294.234 348.665Z" fill="white"/>
</g>
</svg>
